<svg xmlns="http://www.w3.org/2000/svg" viewBox="0 0 95 41"><path fill-rule="nonzero" d="M91.2 8.1c-4.7-3.9-12.7-2-15.7-.6-4.7 2.3-7.6 5.4-10 8-.6.6-1.1 1.2-1.7 1.8-.5.5-.5 1.2-.2 1.8l1.9 2.7-3.9-.8c-.5-.1-.9.1-1.3.4 0 .1-4.7 5-9.3 7.9-.5.3-1.1.7-1.6 1-8.6-.1-23.4-7.3-32-11.9h.5c.8 0 1.4-.6 1.3-1.4 0-.8-.6-1.4-1.4-1.4h-2.9l3.2-1.9c.7-.4.9-1.2.5-1.9s-1.2-.9-1.9-.5l-4.2 2.5 1.2-2.5c.3-.7 0-1.5-.6-1.8-.7-.3-1.5 0-1.8.6L9.8 13C6.6 6.9 6.4 2.3 6.4 2.2 6.4 1.4 5.8.8 5 .8c-.8 0-1.4.6-1.4 1.4 0 .5.2 6.2 4.4 13.4l-6.3.1c-.8 0-1.4.6-1.3 1.4 0 .8.6 1.4 1.4 1.4h2.9l-2 1.2c-.7.4-.9 1.2-.5 1.9.3.4.8.6 1.3.6.2 0 .5-.1.7-.2l4.4-2.6c1 14.2 12.6 17.7 13.5 17.9h.1c.2 0 10.6 2.4 23.2 3.2.1 0 .2.1.3.1h1.1c2.5.1 5 .2 7.6.2h2.1c20.9-.4 33.7-6.9 36.9-18.8 1.8-6.5 1.1-11.2-2.2-13.9zM35 34.7c-9.8-4.4-16.3-9.7-20.5-14.8 7.2 3.9 20.3 10.5 30.1 12.5-3 1.1-6.2 1.9-9.6 2.3zm-23.5-14c3.8 4.8 9.5 9.8 17.9 14.3-2.1 0-4.3-.1-6.6-.4-1.1-.3-9.9-2.9-11.3-13.9zm79.3.6c-2.7 9.9-12.6 14.3-24 15.9 16.3-6.7 20.8-21 20.8-21.2.2-.7-.2-1.5-.9-1.7-.7-.2-1.5.2-1.7.9-.3.9-7.2 22.8-37.2 22.6-3.5-.2-6.8-.5-9.9-.8 5.4-.9 10.2-2.7 14.6-5.5 4-2.5 7.9-6.4 9.3-7.8l6.7 1.3c.6.1 1.1-.1 1.4-.6.3-.5.3-1.1 0-1.5l-3.2-4.5c.3-.3.6-.7.9-1 2.3-2.5 4.9-5.4 9.1-7.4 2.7-1.3 9.4-2.6 12.7.2 2.4 2 2.9 5.7 1.4 11.1z"/></svg>