<svg xmlns="http://www.w3.org/2000/svg" viewBox="0 0 26 34"><g fill-rule="nonzero"><path d="M4.87 0A4.876 4.876 0 0 0 0 4.87v24.025a4.877 4.877 0 0 0 4.87 4.87 4.877 4.877 0 0 0 4.871-4.87V4.87A4.876 4.876 0 0 0 4.871 0zm1.871 28.895c0 1.03-.84 1.87-1.87 1.87-1.032 0-1.871-.84-1.871-1.87V4.87C3 3.84 3.84 3 4.87 3c1.032 0 1.871.839 1.871 1.87v24.025zM20.306 0a4.875 4.875 0 0 0-4.87 4.87v24.025a4.876 4.876 0 0 0 4.87 4.87 4.877 4.877 0 0 0 4.87-4.87V4.87A4.876 4.876 0 0 0 20.307 0zm1.87 28.895c0 1.03-.839 1.87-1.87 1.87-1.031 0-1.87-.84-1.87-1.87V4.87c0-1.031.839-1.87 1.87-1.87 1.031 0 1.87.839 1.87 1.87v24.025z"/></g></svg>