<svg xmlns="http://www.w3.org/2000/svg" viewBox="0 0 31 34"><path fill-rule="nonzero" d="M28.323 13.479L5.899.532a3.896 3.896 0 0 0-3.932 0A3.893 3.893 0 0 0 0 3.94V29.83c0 1.422.735 2.696 1.966 3.407a3.933 3.933 0 0 0 1.966.532c.676 0 1.351-.178 1.967-.533L28.323 20.29a3.893 3.893 0 0 0 1.967-3.405 3.893 3.893 0 0 0-1.967-3.406zm-1.5 4.214L4.399 30.639a.915.915 0 0 1-.933 0A.916.916 0 0 1 3 29.83V3.94c0-.487.326-.728.467-.809a.918.918 0 0 1 .932 0l22.424 12.946c.42.244.467.647.467.809a.918.918 0 0 1-.467.808z"/></svg>