<svg xmlns="http://www.w3.org/2000/svg" viewBox="0 0 80 72">
  <path fill-rule="nonzero" d="M80 36c0 8.6-2.5 16.9-7.3 24.1-.4.6-1 .9-1.7.9-.4 0-.8-.1-1.1-.3-.9-.6-1.2-1.8-.6-2.8C73.7 51.4 76 43.8 76 36c0-7.8-2.3-15.4-6.6-21.9-.6-.9-.4-2.2.6-2.8.9-.6 2.2-.3 2.8.6C77.5 19.1 80 27.4 80 36zm-10.2 0c0 5.8-1.5 11.6-4.4 16.8-.4.6-1 1-1.7 1-.3 0-.7-.1-1-.3-1-.5-1.3-1.8-.8-2.7 2.6-4.5 3.9-9.6 3.9-14.8 0-5.2-1.3-10.3-3.9-14.8-.5-1-.2-2.2.8-2.7s2.2-.2 2.7.8c2.9 5.1 4.4 10.8 4.4 16.7zm-10.2 0c0 3.2-.6 6.2-1.8 9.1-.3.8-1.1 1.2-1.8 1.2-.2 0-.5 0-.8-.1-1-.4-1.5-1.6-1.1-2.6 1-2.4 1.5-4.9 1.5-7.6 0-2.7-.5-5.2-1.5-7.6-.4-1 .1-2.2 1.1-2.6 1-.4 2.2.1 2.6 1.1 1.2 2.9 1.8 5.9 1.8 9.1zM48 2v68c0 .8-.5 1.5-1.2 1.8-.3.2-.5.2-.8.2-.5 0-1-.2-1.4-.6L26.2 53H2c-1.1 0-2-.9-2-2V21c0-1.1.9-2 2-2h24.2L44.6.6c.6-.6 1.4-.8 2.2-.4.7.3 1.2 1 1.2 1.8zM25 23H4v26h21V23zM44 6.8l-15 15v28.3l15 15V6.8z"/>
</svg>
