<svg xmlns="http://www.w3.org/2000/svg" viewBox="0 0 76 72">
  <path fill-rule="nonzero" d="M75.4 43.5857c.8.8004.8 2.001 0 2.8014-.4.4002-.9.6003-1.4.6003-.5 0-1-.2-1.4-.6003L65 38.7833l-7.6 7.6038c-.4.4002-.9.6003-1.4.6003-.5 0-1-.2-1.4-.6003-.8-.8004-.8-2.001 0-2.8014l7.6-7.6038-7.6-7.6038c-.8-.8004-.8-2.001 0-2.8014.8-.8004 2-.8004 2.8 0l7.6 7.6038 7.6-7.6038c.8-.8004 2-.8004 2.8 0 .8.8004.8 2.001 0 2.8014l-7.6 7.6038 7.6 7.6038zM48 1.9648V69.999c0 .8004-.5 1.5007-1.2 1.8009C46.5 72 46.3 72 46 72c-.5 0-1-.2001-1.4-.6003L26.2 52.9904H2c-1.1 0-2-.9004-2-2.001v-30.015c0-1.1006.9-2.001 2-2.001h24.2L44.6.564c.6-.6003 1.4-.7004 2.2-.4002.7.3001 1.2 1.0005 1.2 1.8009zM25 22.9754H4v26.013h21v-26.013zM44 6.7672L29 21.7748V50.089l15 15.0075V6.7672z"/>
</svg>
